<mxfile host="app.diagrams.net" agent="Mozilla/5.0 (X11; Linux x86_64; rv:130.0) Gecko/20100101 Firefox/130.0" version="24.7.12">
  <diagram name="Page-1" id="moH6eWHaDZ7BNspQAGvY">
    <mxGraphModel dx="1434" dy="790" grid="1" gridSize="10" guides="1" tooltips="1" connect="1" arrows="1" fold="1" page="1" pageScale="1" pageWidth="850" pageHeight="1100" math="0" shadow="0">
      <root>
        <mxCell id="0" />
        <mxCell id="1" parent="0" />
        <mxCell id="jDWCtME3_9tkdKrhQHwm-3" value="Host Computer" style="image;points=[];html=1;align=center;shadow=0;dashed=0;image=img/lib/allied_telesis/computer_and_terminals/Personal_Computer_Wireless.svg;" parent="1" vertex="1">
          <mxGeometry x="362" y="224.99999999999997" width="126" height="130" as="geometry" />
        </mxCell>
        <mxCell id="jDWCtME3_9tkdKrhQHwm-6" value="&lt;div&gt;Detector&lt;/div&gt;&lt;div&gt;&lt;br&gt;&lt;/div&gt;" style="sketch=0;pointerEvents=1;shadow=0;dashed=0;html=1;strokeColor=none;labelPosition=center;verticalLabelPosition=bottom;verticalAlign=top;align=center;fillColor=#00188D;shape=mxgraph.mscae.enterprise.device" parent="1" vertex="1">
          <mxGeometry x="163" y="80" width="70" height="40" as="geometry" />
        </mxCell>
        <mxCell id="jDWCtME3_9tkdKrhQHwm-11" value="Receiver" style="image;perimeter=ellipsePerimeter;html=1;align=center;shadow=0;dashed=0;spacingTop=3;image=img/lib/active_directory/generic_server.svg;" parent="1" vertex="1">
          <mxGeometry x="170" y="240" width="56.00000000000001" height="100" as="geometry" />
        </mxCell>
        <mxCell id="jDWCtME3_9tkdKrhQHwm-14" style="edgeStyle=orthogonalEdgeStyle;rounded=0;orthogonalLoop=1;jettySize=auto;html=1;exitX=0.5;exitY=1;exitDx=0;exitDy=0;exitPerimeter=0;" parent="1" source="jDWCtME3_9tkdKrhQHwm-6" target="jDWCtME3_9tkdKrhQHwm-6" edge="1">
          <mxGeometry relative="1" as="geometry" />
        </mxCell>
        <mxCell id="jDWCtME3_9tkdKrhQHwm-15" value="" style="shape=flexArrow;endArrow=classic;startArrow=classic;html=1;rounded=0;exitX=1;exitY=0.5;exitDx=0;exitDy=0;entryX=0.063;entryY=0.514;entryDx=0;entryDy=0;entryPerimeter=0;" parent="1" source="jDWCtME3_9tkdKrhQHwm-11" target="jDWCtME3_9tkdKrhQHwm-3" edge="1">
          <mxGeometry width="100" height="100" relative="1" as="geometry">
            <mxPoint x="370" y="460" as="sourcePoint" />
            <mxPoint x="470" y="360" as="targetPoint" />
          </mxGeometry>
        </mxCell>
        <mxCell id="jDWCtME3_9tkdKrhQHwm-18" value="&lt;div&gt;TCP&lt;/div&gt;" style="text;html=1;align=center;verticalAlign=middle;whiteSpace=wrap;rounded=0;" parent="1" vertex="1">
          <mxGeometry x="270" y="260" width="60" height="30" as="geometry" />
        </mxCell>
        <mxCell id="jDWCtME3_9tkdKrhQHwm-19" value="" style="shape=flexArrow;endArrow=classic;startArrow=classic;html=1;rounded=0;" parent="1" source="jDWCtME3_9tkdKrhQHwm-3" edge="1">
          <mxGeometry width="100" height="100" relative="1" as="geometry">
            <mxPoint x="450" y="290" as="sourcePoint" />
            <mxPoint x="620" y="290" as="targetPoint" />
          </mxGeometry>
        </mxCell>
        <mxCell id="jDWCtME3_9tkdKrhQHwm-20" value="&lt;div&gt;TCP&lt;/div&gt;" style="text;html=1;align=center;verticalAlign=middle;whiteSpace=wrap;rounded=0;" parent="1" vertex="1">
          <mxGeometry x="530" y="260" width="60" height="30" as="geometry" />
        </mxCell>
        <mxCell id="jDWCtME3_9tkdKrhQHwm-22" value="" style="shape=flexArrow;endArrow=classic;html=1;rounded=0;entryX=0.5;entryY=0;entryDx=0;entryDy=0;" parent="1" target="jDWCtME3_9tkdKrhQHwm-11" edge="1">
          <mxGeometry width="50" height="50" relative="1" as="geometry">
            <mxPoint x="200" y="160" as="sourcePoint" />
            <mxPoint x="450" y="270" as="targetPoint" />
          </mxGeometry>
        </mxCell>
        <mxCell id="jDWCtME3_9tkdKrhQHwm-23" value="UDP" style="text;html=1;align=center;verticalAlign=middle;whiteSpace=wrap;rounded=0;" parent="1" vertex="1">
          <mxGeometry x="200" y="170" width="60" height="30" as="geometry" />
        </mxCell>
        <mxCell id="jDWCtME3_9tkdKrhQHwm-24" value="&lt;div&gt;Detector&lt;/div&gt;&lt;div&gt;&lt;br&gt;&lt;/div&gt;" style="sketch=0;pointerEvents=1;shadow=0;dashed=0;html=1;strokeColor=none;labelPosition=center;verticalLabelPosition=bottom;verticalAlign=top;align=center;fillColor=#00188D;shape=mxgraph.mscae.enterprise.device" parent="1" vertex="1">
          <mxGeometry x="620" y="80" width="70" height="40" as="geometry" />
        </mxCell>
        <mxCell id="jDWCtME3_9tkdKrhQHwm-25" value="Receiver" style="image;perimeter=ellipsePerimeter;html=1;align=center;shadow=0;dashed=0;spacingTop=3;image=img/lib/active_directory/generic_server.svg;" parent="1" vertex="1">
          <mxGeometry x="627" y="240.00000000000003" width="56.00000000000001" height="100" as="geometry" />
        </mxCell>
        <mxCell id="jDWCtME3_9tkdKrhQHwm-26" style="edgeStyle=orthogonalEdgeStyle;rounded=0;orthogonalLoop=1;jettySize=auto;html=1;exitX=0.5;exitY=1;exitDx=0;exitDy=0;exitPerimeter=0;" parent="1" source="jDWCtME3_9tkdKrhQHwm-24" target="jDWCtME3_9tkdKrhQHwm-24" edge="1">
          <mxGeometry relative="1" as="geometry" />
        </mxCell>
        <mxCell id="jDWCtME3_9tkdKrhQHwm-28" value="" style="shape=flexArrow;endArrow=classic;html=1;rounded=0;entryX=0.5;entryY=0;entryDx=0;entryDy=0;" parent="1" target="jDWCtME3_9tkdKrhQHwm-25" edge="1">
          <mxGeometry width="50" height="50" relative="1" as="geometry">
            <mxPoint x="655" y="160" as="sourcePoint" />
            <mxPoint x="891" y="230" as="targetPoint" />
          </mxGeometry>
        </mxCell>
        <mxCell id="jDWCtME3_9tkdKrhQHwm-29" value="UDP" style="text;html=1;align=center;verticalAlign=middle;whiteSpace=wrap;rounded=0;" parent="1" vertex="1">
          <mxGeometry x="600" y="170" width="60" height="30" as="geometry" />
        </mxCell>
        <mxCell id="jDWCtME3_9tkdKrhQHwm-31" value="" style="shape=flexArrow;endArrow=classic;startArrow=classic;html=1;rounded=0;exitX=0.016;exitY=-0.031;exitDx=0;exitDy=0;exitPerimeter=0;entryX=1.064;entryY=0.717;entryDx=0;entryDy=0;entryPerimeter=0;" parent="1" source="jDWCtME3_9tkdKrhQHwm-3" target="jDWCtME3_9tkdKrhQHwm-6" edge="1">
          <mxGeometry width="100" height="100" relative="1" as="geometry">
            <mxPoint x="370" y="340" as="sourcePoint" />
            <mxPoint x="300" y="120" as="targetPoint" />
          </mxGeometry>
        </mxCell>
        <mxCell id="jDWCtME3_9tkdKrhQHwm-32" value="" style="shape=flexArrow;endArrow=classic;startArrow=classic;html=1;rounded=0;entryX=-0.024;entryY=0.654;entryDx=0;entryDy=0;entryPerimeter=0;" parent="1" source="jDWCtME3_9tkdKrhQHwm-3" target="jDWCtME3_9tkdKrhQHwm-24" edge="1">
          <mxGeometry width="100" height="100" relative="1" as="geometry">
            <mxPoint x="445.3851479289941" y="240" as="sourcePoint" />
            <mxPoint x="543.61" y="120" as="targetPoint" />
          </mxGeometry>
        </mxCell>
        <mxCell id="jDWCtME3_9tkdKrhQHwm-33" value="&lt;div&gt;TCP&lt;/div&gt;" style="text;html=1;align=center;verticalAlign=middle;whiteSpace=wrap;rounded=0;" parent="1" vertex="1">
          <mxGeometry x="290" y="130" width="60" height="30" as="geometry" />
        </mxCell>
        <mxCell id="jDWCtME3_9tkdKrhQHwm-37" value="&lt;div&gt;TCP&lt;/div&gt;" style="text;html=1;align=center;verticalAlign=middle;whiteSpace=wrap;rounded=0;" parent="1" vertex="1">
          <mxGeometry x="500" y="140" width="60" height="30" as="geometry" />
        </mxCell>
      </root>
    </mxGraphModel>
  </diagram>
</mxfile>
